# xmcd
#
# Track frame offsets: 
#        150
#        12567
#        28179
#        46972
#        62561
#        75955
#        90017
#        104908
#        120793
#        135434
#
# Disc length: 2013 seconds
#
# Revision: 1
# Processed by: cddbd v1.5.1PL2 Copyright (c) Steve Scherf et al.
# Submitted via: ExactAudioCopy v0.95b3
#
DISCID=6e07db0a
DTITLE=Daryle Singletary - Now And Again
DYEAR=2000
DGENRE=Country
TTITLE0=Too Much Fun
TTITLE1=I've Thought Of Everything
TTITLE2=You Ain't Heard Nothing Yet
TTITLE3=Amen Kind Of Love
TTITLE4=I Let Her Lie
TTITLE5=Would These Arms Be In Your Way
TTITLE6=Dumaflache
TTITLE7=I Knew I Loved You
TTITLE8=Now And Again
TTITLE9=The Note
EXTD=YEAR: 2000 ID3G: 2
EXTT0=
EXTT1=
EXTT2=
EXTT3=
EXTT4=
EXTT5=
EXTT6=
EXTT7=
EXTT8=
EXTT9=
PLAYORDER=
